PathFileType	4	(X/Y/Z)	C:/Users/Carlo/Dropbox/Carlos/SARAH/CongressoMarcha2025/WorkshopOpenSim/C3D/Caso01/Cal 01.c3d.trc
DataRate	CameraRate	NumFrames	NumMarkers	Units	OrigDataRate	OrigDataStartFrame	OrigNumFrames
100.000000	100.000000	4	70	mm	100.000000	0	178
Frame#	Time	LASI			RASI			LPSI			RPSI			LTHI			LKNE			LTIB			LANK			LHEE			LTOE			RTHI			RKNE			RTIB			RANK			RHEE			RTOE			PELO			PELA			PELL			PELP			LFEO			LFEA			LFEL			LFEP			LTIO			LTIA			LTIL			LTIP			LFOO			LFOA			LFOL			LFOP			LTOO			LTOA			LTOL			LTOP			RFEO			RFEA			RFEL			RFEP			RTIO			RTIA			RTIL			RTIP			RFOO			RFOA			RFOL			RFOP			RTOO			RTOA			RTOL			RTOP			LHipAngles			LKneeAngles			LAbsAnkleAngle			LAnkleAngles			RHipAngles			RKneeAngles			RAnkleAngles			RAbsAnkleAngle			LPelvisAngles			RPelvisAngles			LFootProgressAngles			RFootProgressAngles			LHJC			RHJC			LKJC			RKJC			LAJC			RAJC			
		X1	Y1	Z1	X2	Y2	Z2	X3	Y3	Z3	X4	Y4	Z4	X5	Y5	Z5	X6	Y6	Z6	X7	Y7	Z7	X8	Y8	Z8	X9	Y9	Z9	X10	Y10	Z10	X11	Y11	Z11	X12	Y12	Z12	X13	Y13	Z13	X14	Y14	Z14	X15	Y15	Z15	X16	Y16	Z16	X17	Y17	Z17	X18	Y18	Z18	X19	Y19	Z19	X20	Y20	Z20	X21	Y21	Z21	X22	Y22	Z22	X23	Y23	Z23	X24	Y24	Z24	X25	Y25	Z25	X26	Y26	Z26	X27	Y27	Z27	X28	Y28	Z28	X29	Y29	Z29	X30	Y30	Z30	X31	Y31	Z31	X32	Y32	Z32	X33	Y33	Z33	X34	Y34	Z34	X35	Y35	Z35	X36	Y36	Z36	X37	Y37	Z37	X38	Y38	Z38	X39	Y39	Z39	X40	Y40	Z40	X41	Y41	Z41	X42	Y42	Z42	X43	Y43	Z43	X44	Y44	Z44	X45	Y45	Z45	X46	Y46	Z46	X47	Y47	Z47	X48	Y48	Z48	X49	Y49	Z49	X50	Y50	Z50	X51	Y51	Z51	X52	Y52	Z52	X53	Y53	Z53	X54	Y54	Z54	X55	Y55	Z55	X56	Y56	Z56	X57	Y57	Z57	X58	Y58	Z58	X59	Y59	Z59	X60	Y60	Z60	X61	Y61	Z61	X62	Y62	Z62	X63	Y63	Z63	X64	Y64	Z64	X65	Y65	Z65	X66	Y66	Z66	X67	Y67	Z67	X68	Y68	Z68	X69	Y69	Z69	X70	Y70	Z70	

1	0	52.8851013183594	1047.166137695313	-307.2449645996095	71.32735443115237	1056.683837890625	-519.8027343750002	247.3947753906251	1063.224243164063	-336.9333496093751	261.9199218750001	1064.173095703125	-448.0790710449221	115.4854125976563	749.1391601562502	-213.3141021728517	121.2099380493165	538.661315917969	-249.6914978027345	154.997543334961	302.2199096679689	-217.8970794677736	175.3323822021485	99.73460388183599	-223.4617462158204	238.4015350341798	56.01310348510745	-265.5874328613282	12.8205795288086	63.00179672241214	-247.7854461669923	126.2924804687501	816.8245239257817	-608.4956665039065	116.419906616211	537.4375000000002	-572.8318481445315	148.4622192382813	383.7836914062501	-602.706970214844	179.540023803711	96.75572967529303	-598.7131347656252	246.1275634765626	58.93849182128909	-553.593688964844	21.69350814819337	62.73697280883792	-576.8936157226565	115.2969818115235	958.0462036132817	-413.1124572753909	-12.87249755859376	950.1108398437505	-424.5881958007815	104.1638183593751	952.3005371093755	-284.7960205078126	106.8877410888672	1086.60009765625	-408.0857849121096	121.2937545776368	532.9837036132815	-307.4128723144532	-302.9507446289064	521.353942871094	-306.8850097656251	120.6804275512696	574.5285644531252	114.9525756835938	109.6682128906251	955.1894531250005	-348.9588928222657	170.8502960205079	95.22393035888675	-268.5151977539064	-246.2977447509767	52.07210540771487	-222.6954345703126	212.4076232910157	137.0462646484376	149.2142639160157	123.5795898437501	512.7917480468752	-305.6186828613282	16.45988273620606	87.254264831543	-240.6495666503907	21.45660400390626	305.4517822265626	-262.9921875000001	34.30737686157228	109.1240997314454	-23.07771301269532	235.071014404297	80.48152160644534	-257.9015502929689	-56.41049957275393	89.51185607910159	-234.8989105224611	-54.74492645263675	162.244369506836	-242.3464660644532	-50.46132659912112	96.80181121826178	-162.3749694824219	16.45986938476563	87.25427246093753	-240.6495819091798	112.3281478881837	532.3740844726565	-516.2048339843752	-316.8555908203126	543.710632324219	-546.203063964844	81.43325042724612	494.142761230469	-88.6408386230469	120.9257507324219	960.9028320312505	-477.2659912109377	169.8772125244141	91.66748046875003	-553.5136718750002	-243.1933746337892	45.6416473388672	-647.0017700195315	81.35109710693362	45.0513038635254	-139.4173889160157	114.9087524414063	512.6119384765627	-517.8778076171877	16.86509132385255	81.72974395751956	-585.2195434570315	17.97850799560548	299.0121459960939	-560.5213623046877	-5.984361648559572	57.28205871582034	-369.1105957031251	234.3496704101564	78.04885864257815	-562.641052246094	-55.62976074218753	82.95669555664065	-592.7457275390627	-55.25864028930667	155.3841552734376	-584.5130004882815	-63.24625396728518	74.80747985839847	-520.709411621094	16.86509704589844	81.72975158691409	-585.2195434570315	-8.013021469116214	-5.143754482269289	1.463179826736451	0.545806407928467	-5.710952758789064	4.863357067108156	0	0	7.775350570678714	-1.01792868838907e-13	0.9874068498611455	7.776517868041996	-2.518895626068116	0.8928198814392094	5.122383117675783	-0.2629960775375367	-7.979189872741703	8.561468124389652	-2.958197516155296e-14	5.996126651763918	7.878190517425541	0	0	7.834822177886966	-2.234438180923463	5.110547542572023	3.742603063583376	2.234438180923463	-5.110547542572023	3.742603063583376	-5.863203525543215	-4.510057449340822	-91.7745056152344	-6.519811630249027	-5.926164150238039	-90.96961975097659	109.6682052612305	955.1894531250005	-348.9589233398439	120.9257583618165	960.902954101563	-477.2659606933596	121.2937545776368	532.9837036132815	-307.4128723144532	112.3281478881837	532.3740844726565	-516.2048339843752	170.8502960205079	95.22393035888675	-268.5151977539064	169.8772125244141	91.66748046875003	-553.5137329101565	
2	0.01	52.97954940795901	1047.184448242188	-307.4699707031251	71.08551788330081	1056.693481445313	-519.9851684570315	247.4640960693361	1063.21728515625	-337.069305419922	262.0148315429689	1064.1494140625	-448.2301025390627	115.6120986938477	749.1814575195315	-213.4568328857423	121.2763366699219	538.7253417968752	-249.7872161865236	155.1517333984376	302.2573852539064	-217.9563598632814	175.3866577148438	99.81346893310553	-223.4529266357423	238.3898468017579	55.99812698364261	-265.5728759765626	12.86013889312745	63.01974105834964	-247.7941131591798	126.363639831543	816.8353881835942	-608.6858520507815	116.3842849731446	537.4547119140627	-573.000183105469	148.4522705078126	383.8015136718751	-602.8461914062502	179.5409393310547	96.76488494873053	-598.7824707031252	246.1204071044923	58.93272781372073	-553.5925903320315	21.72091102600098	62.7706108093262	-576.9196777343752	115.2124404907227	958.0537109375005	-413.397644042969	-12.9757308959961	950.1337890625005	-424.6734313964846	104.2786254882813	952.311401367188	-285.0638732910157	106.8267135620118	1086.608642578125	-408.3598632812502	121.302719116211	533.020935058594	-307.5060119628907	-302.9321899414064	521.438903808594	-306.5552673339845	121.1096801757813	574.760681152344	114.8304443359376	109.6833419799805	955.198608398438	-349.2353820800782	170.7848510742188	95.2791442871094	-268.4919433593751	-246.243377685547	52.32151031494143	-221.5577545166017	213.4506225585939	137.3191833496094	149.0878906250001	123.5851974487305	512.8291625976565	-305.7063903808595	16.39178657531739	87.34291839599612	-240.6314392089845	21.41264915466309	305.5259399414064	-263.1101379394532	34.22730255126955	109.346908569336	-23.07211303710938	235.0033569335939	80.53668975830081	-257.8648376464845	-56.47873687744143	89.6116638183594	-234.8869781494142	-54.80511474609378	162.3393249511719	-242.3798675537111	-50.53356552124026	96.94632720947271	-162.3672027587891	16.39178466796876	87.34291839599612	-240.6314544677736	112.1729888916016	532.409362792969	-516.380310058594	-316.9049072265626	543.7889404296877	-547.2803955078127	80.37847900390628	494.3180236816409	-88.91064453125003	120.741569519043	960.9086914062505	-477.5599060058596	169.8114318847657	91.67687988281253	-553.5972900390627	-243.1453552246095	45.61760711669923	-647.7038574218752	80.6679382324219	45.05971527099611	-139.6032714843751	114.7574462890626	512.647399902344	-518.0490722656252	16.80193138122559	81.76747131347659	-585.3247680664065	17.94897651672364	299.0479125976564	-560.611267089844	-6.081172943115238	57.3085632324219	-369.2206420898439	234.2827606201173	78.04795074462893	-562.7168579101565	-55.69168090820315	83.0073165893555	-592.8607177734377	-55.30931472778323	155.4341278076172	-584.6228637695315	-63.31938552856448	74.85433197021487	-520.8259887695315	16.80193328857423	81.76745605468753	-585.3247680664065	-8.039726257324222	-5.111607074737551	1.463392972946167	0.5506272315979006	-5.805778026580812	4.855224132537844	0	0	7.773848056793216	-3.348198996701303e-13	1.142102003097535	7.775401115417484	-2.507856845855714	0.6828596591949465	5.102559566497805	-0.2846555113792421	-7.945559024810795	8.567971229553226	-1.10348084565292e-13	6.071310997009281	7.901040077209476	0	0	7.856434345245365	-2.239384174346925	5.021295070648195	3.732147216796877	2.239384174346925	-5.021295070648195	3.732147216796877	-5.898984909057619	-4.505196094512941	-91.78326416015628	-6.523967266082767	-5.933912277221681	-90.9798278808594	109.6833267211915	955.1986694335942	-349.2353820800782	120.741554260254	960.9087524414067	-477.5599060058596	121.302719116211	533.0209960937502	-307.5060119628907	112.1729888916016	532.409362792969	-516.380310058594	170.7848510742188	95.27915191650393	-268.4919433593751	169.8114318847657	91.676872253418	-553.597351074219	
3	0.02	53.12702941894534	1047.249755859375	-307.6579589843751	71.54697418212893	1056.870727539063	-520.2331542968752	247.5453491210939	1063.1826171875	-337.1839599609376	262.1411437988282	1064.128784179688	-448.3532714843752	115.8355865478516	749.3623657226565	-213.6036682128907	121.4832305908204	538.9075927734377	-249.8928527832032	155.2918548583985	302.3419189453126	-218.0612182617189	175.5267486572266	99.94948577880865	-223.4483795166017	238.4005279541017	56.0116996765137	-265.5394592285157	12.91444683074952	63.07937240600589	-247.8029022216798	126.5007247924805	816.9212036132817	-608.854431152344	116.4244384765626	537.5341796875002	-573.153015136719	148.460922241211	383.893768310547	-602.9835205078127	179.5988311767579	96.84983062744146	-598.8250122070315	246.129119873047	58.91790008544925	-553.5837402343752	21.78069114685059	62.85561752319339	-576.9468383789065	115.4518814086915	958.1382446289067	-413.5939025878909	-12.72566986083985	950.3129272460942	-425.0548400878909	104.3332214355469	952.3308105468755	-285.2789306640626	107.1474304199219	1086.696044921875	-408.4950866699221	121.4777755737305	533.1870727539065	-307.6100463867189	-302.6537475585939	521.6004028320315	-306.421600341797	121.5176391601563	575.0349731445315	114.6125793457032	109.8303680419922	955.2506713867192	-349.4411010742189	170.9420928955079	95.40653228759768	-268.4882812500001	-246.1501312255861	52.46091079711917	-221.700408935547	213.453338623047	137.5311737060547	149.1451110839844	123.7592010498047	512.9954833984377	-305.8056640625001	16.54290580749512	87.50599670410159	-240.6516418457032	21.6098976135254	305.6834716796876	-263.1738586425782	34.34681701660158	109.5507583618165	-23.09385681152344	235.1560058593751	80.6537780761719	-257.8475952148439	-56.32812118530276	89.79007720947268	-234.9196624755861	-54.6391296386719	162.5158996582032	-242.4270629882814	-50.39349365234378	97.13833618164068	-162.4004058837891	16.54290390014649	87.50601196289065	-240.6516418457032	112.2649154663087	532.4951782226565	-516.528747558594	-316.8693847656251	544.0756835937502	-547.021667480469	80.85893249511722	494.4487609863284	-88.99356079101565	121.0733947753907	961.0258789062505	-477.7466735839846	169.9246368408204	91.7795104980469	-553.6259765625002	-243.1150054931642	45.61810684204103	-647.2094726562502	81.29291534423831	45.32698440551759	-139.5280456542969	114.8504638671876	512.7329101562502	-518.1922607421877	16.91594886779786	81.93348693847659	-585.3770751953127	18.16353607177735	299.2214965820314	-560.7351684570315	-6.016849517822269	57.55705261230472	-369.2689208984376	234.3909912109376	78.11646270751956	-562.7297973632815	-55.57573318481448	83.20584106445315	-592.9261474609377	-55.15984344482425	155.6351776123047	-584.7121582031252	-63.22000122070315	75.08033752441409	-520.890075683594	16.91595077514649	81.93347167968753	-585.3770751953127	-8.080434799194339	-5.228645801544191	1.407627224922181	0.5496092438697817	-5.752377510070803	4.848371982574465	0	0	7.782682895660404	-3.292513017869731e-13	1.128665447235108	7.784210205078129	-2.468410730361939	0.8180480599403386	5.09904718399048	-0.2697083055973054	-7.925993919372562	8.603859901428226	-2.04672419962769e-13	5.988519668579103	7.929147720336918	0	0	7.885588169097904	-2.266538619995118	5.104046344757082	3.696014404296877	2.266538619995118	-5.104046344757082	3.696014404296877	-5.91038751602173	-4.495381832122805	-91.79529571533206	-6.505100727081302	-5.94430446624756	-91.00554656982425	109.8303680419922	955.2506713867192	-349.4411010742189	121.0733871459962	961.0258178710942	-477.7467041015627	121.4777755737305	533.1870117187502	-307.610076904297	112.2649154663087	532.4951782226565	-516.528747558594	170.9420928955079	95.40653228759768	-268.4882812500001	169.9246368408204	91.7795104980469	-553.6259765625002	
4	0.03	53.21415710449222	1047.300170898438	-307.8657531738282	71.63858795166018	1056.921508789063	-520.436950683594	247.6563873291017	1063.18505859375	-337.3120422363282	262.2879028320314	1064.123779296875	-448.4693603515627	115.9882507324219	749.416687011719	-213.8014678955079	121.772445678711	539.008972167969	-250.0840148925782	155.3593902587891	302.4199829101564	-218.120819091797	175.5903015136719	100.0119171142579	-223.4546203613282	238.4340362548829	56.04112625122073	-265.5287170410157	12.90982341766358	63.13116455078128	-247.8444976806642	126.6327514648438	816.9203491210942	-609.006042480469	116.437240600586	537.566345214844	-573.3079223632815	148.4857635498047	383.898895263672	-603.0931396484377	179.6022338867188	96.86042785644537	-598.9005126953127	246.1782531738282	58.92889785766604	-553.5715942382815	21.83091926574708	62.90237045288089	-576.9990234375002	115.5166168212891	958.174926757813	-413.8015136718752	-12.66285705566407	950.3834838867192	-425.2640075683596	104.3950576782227	952.3671875000005	-285.4868164062501	107.2457885742188	1086.734741210938	-408.6995544433596	121.7857131958008	533.285827636719	-307.8009643554689	-302.2854614257814	521.4422607421877	-306.724090576172	121.6886291503907	575.1474609375002	114.3665466308594	109.8936767578126	955.2871093750005	-349.6488647460939	171.1191101074219	95.46468353271487	-268.5054931640626	-246.1341247558595	52.55435943603518	-222.7629699707032	212.5823211669923	137.6330718994141	149.2702636718751	124.0608825683594	513.0942382812502	-305.9887084960939	16.71242332458497	87.57917022705081	-240.7061920166017	21.80502700805665	305.7555236816407	-263.233367919922	34.46540832519533	109.6284408569337	-23.14472961425782	235.3290405273439	80.7062683105469	-257.8487548828126	-56.159782409668	89.87012481689456	-234.9919891357423	-54.46226882934573	162.5955810546876	-242.5010223388673	-50.24209594726565	97.21987152099615	-162.4715118408204	16.7124252319336	87.57918548583987	-240.7061920166017	112.2262191772462	532.5361938476565	-516.686706542969	-316.8707885742189	544.2517700195315	-547.558532714844	80.43194580078128	494.5571899414065	-89.18078613281253	121.1395492553712	961.062622070313	-477.9541625976565	169.8898315429688	91.79364013671878	-553.7092895507815	-243.0945739746095	45.65196228027345	-647.6404418945315	80.90373229980472	45.37118911743165	-139.6625976562501	114.8118057250977	512.7735595703127	-518.3467407226565	16.88855743408204	81.97149658203128	-585.5034179687502	18.16431999206544	299.259979248047	-560.8670654296877	-6.109411239624027	57.60467910766604	-369.4011230468751	234.3565673828126	78.11991119384768	-562.794372558594	-55.60077285766604	83.25537109375003	-593.0731201171877	-55.17554855346683	155.6848602294922	-584.861022949219	-63.26673889160159	75.13308715820315	-521.039001464844	16.88856887817384	81.97153472900393	-585.5034790039065	-8.0805778503418	-5.21627712249756	1.358663201332093	0.5323131084442141	-5.628406047821047	4.797263145446779	0	0	7.770039558410648	-2.385778206936974e-13	0.998378694057465	7.771220207214359	-2.460520267486573	0.7678402066230778	5.097426414489748	-0.2751422524452211	-7.92292404174805	8.617962837219242	3.374088931428627e-13	6.019486904144291	7.938279151916507	0	0	7.894218444824222	-2.267940521240235	5.104750633239748	3.681017637252809	2.267940521240235	-5.104750633239748	3.681017637252809	-5.911561489105226	-4.481402397155763	-91.80067443847659	-6.503815174102787	-5.960566997528078	-91.01467132568362	109.8936614990235	955.2871704101567	-349.6488647460939	121.1395721435547	961.0626831054692	-477.9541625976565	121.7857131958008	533.285827636719	-307.8009338378907	112.2262191772462	532.5361938476565	-516.686706542969	171.1191101074219	95.46468353271487	-268.5054931640626	169.8898315429688	91.79364013671878	-553.7092895507815	
